<mxfile host="Electron" modified="2024-03-30T01:21:17.735Z" agent="Mozilla/5.0 (Macintosh; Intel Mac OS X 10_15_7) AppleWebKit/537.36 (KHTML, like Gecko) draw.io/24.1.0 Chrome/120.0.6099.109 Electron/28.1.0 Safari/537.36" etag="rkjOh9M2iTgFG-Xm_XLJ" version="24.1.0" type="device">
  <diagram name="PÃ¡gina-1" id="vV6ixFCPOrgBAap0emKp">
    <mxGraphModel dx="783" dy="504" grid="1" gridSize="10" guides="1" tooltips="1" connect="1" arrows="1" fold="1" page="1" pageScale="1" pageWidth="827" pageHeight="1169" math="0" shadow="0">
      <root>
        <mxCell id="0" />
        <mxCell id="1" parent="0" />
        <mxCell id="1cAIYkBVIxSNk02UuMZp-15" value="Aerolineas" style="shape=table;startSize=30;container=1;collapsible=1;childLayout=tableLayout;fixedRows=1;rowLines=0;fontStyle=0;align=center;resizeLast=1;html=1;whiteSpace=wrap;" vertex="1" parent="1">
          <mxGeometry x="60" y="80" width="180" height="80" as="geometry" />
        </mxCell>
        <mxCell id="1cAIYkBVIxSNk02UuMZp-16" value="" style="shape=tableRow;horizontal=0;startSize=0;swimlaneHead=0;swimlaneBody=0;fillColor=none;collapsible=0;dropTarget=0;points=[[0,0.5],[1,0.5]];portConstraint=eastwest;top=0;left=0;right=0;bottom=0;html=1;" vertex="1" parent="1cAIYkBVIxSNk02UuMZp-15">
          <mxGeometry y="30" width="180" height="30" as="geometry" />
        </mxCell>
        <mxCell id="1cAIYkBVIxSNk02UuMZp-17" value="Id" style="shape=partialRectangle;connectable=0;fillColor=none;top=0;left=0;bottom=0;right=0;fontStyle=0;overflow=hidden;html=1;whiteSpace=wrap;" vertex="1" parent="1cAIYkBVIxSNk02UuMZp-16">
          <mxGeometry width="91" height="30" as="geometry">
            <mxRectangle width="91" height="30" as="alternateBounds" />
          </mxGeometry>
        </mxCell>
        <mxCell id="1cAIYkBVIxSNk02UuMZp-18" value="Integer" style="shape=partialRectangle;connectable=0;fillColor=none;top=0;left=0;bottom=0;right=0;align=center;spacingLeft=6;fontStyle=0;overflow=hidden;html=1;whiteSpace=wrap;" vertex="1" parent="1cAIYkBVIxSNk02UuMZp-16">
          <mxGeometry x="91" width="89" height="30" as="geometry">
            <mxRectangle width="89" height="30" as="alternateBounds" />
          </mxGeometry>
        </mxCell>
        <mxCell id="1cAIYkBVIxSNk02UuMZp-19" value="" style="shape=tableRow;horizontal=0;startSize=0;swimlaneHead=0;swimlaneBody=0;fillColor=none;collapsible=0;dropTarget=0;points=[[0,0.5],[1,0.5]];portConstraint=eastwest;top=0;left=0;right=0;bottom=1;html=1;" vertex="1" parent="1cAIYkBVIxSNk02UuMZp-15">
          <mxGeometry y="60" width="180" height="20" as="geometry" />
        </mxCell>
        <mxCell id="1cAIYkBVIxSNk02UuMZp-20" value="nombre" style="shape=partialRectangle;connectable=0;fillColor=none;top=0;left=0;bottom=0;right=0;fontStyle=0;overflow=hidden;html=1;whiteSpace=wrap;" vertex="1" parent="1cAIYkBVIxSNk02UuMZp-19">
          <mxGeometry width="91" height="20" as="geometry">
            <mxRectangle width="91" height="20" as="alternateBounds" />
          </mxGeometry>
        </mxCell>
        <mxCell id="1cAIYkBVIxSNk02UuMZp-21" value="Varchar" style="shape=partialRectangle;connectable=0;fillColor=none;top=0;left=0;bottom=0;right=0;align=center;spacingLeft=6;fontStyle=0;overflow=hidden;html=1;whiteSpace=wrap;" vertex="1" parent="1cAIYkBVIxSNk02UuMZp-19">
          <mxGeometry x="91" width="89" height="20" as="geometry">
            <mxRectangle width="89" height="20" as="alternateBounds" />
          </mxGeometry>
        </mxCell>
        <mxCell id="1cAIYkBVIxSNk02UuMZp-73" value="Aviones" style="shape=table;startSize=35;container=1;collapsible=1;childLayout=tableLayout;fixedRows=1;rowLines=0;fontStyle=0;align=center;resizeLast=1;html=1;whiteSpace=wrap;swimlaneLine=1;fillColor=none;strokeColor=default;swimlaneHead=1;swimlaneBody=1;horizontal=1;top=1;bottom=1;left=1;right=1;connectable=1;allowArrows=1;expand=1;editable=1;movable=1;resizable=1;rotatable=1;deletable=1;locked=0;flipH=1;verticalAlign=middle;" vertex="1" parent="1">
          <mxGeometry x="340" y="30" width="180" height="160" as="geometry" />
        </mxCell>
        <mxCell id="1cAIYkBVIxSNk02UuMZp-74" value="" style="shape=tableRow;horizontal=0;startSize=0;swimlaneHead=0;swimlaneBody=0;fillColor=none;collapsible=0;dropTarget=0;points=[[0,0.5],[1,0.5]];portConstraint=eastwest;top=0;left=0;right=0;bottom=0;html=1;" vertex="1" parent="1cAIYkBVIxSNk02UuMZp-73">
          <mxGeometry y="35" width="180" height="30" as="geometry" />
        </mxCell>
        <mxCell id="1cAIYkBVIxSNk02UuMZp-75" value="id_avion" style="shape=partialRectangle;connectable=0;fillColor=none;top=0;left=0;bottom=0;right=0;fontStyle=0;overflow=hidden;html=1;whiteSpace=wrap;" vertex="1" parent="1cAIYkBVIxSNk02UuMZp-74">
          <mxGeometry width="90" height="30" as="geometry">
            <mxRectangle width="90" height="30" as="alternateBounds" />
          </mxGeometry>
        </mxCell>
        <mxCell id="1cAIYkBVIxSNk02UuMZp-76" value="Integer" style="shape=partialRectangle;connectable=0;fillColor=none;top=0;left=0;bottom=0;right=0;align=center;spacingLeft=6;fontStyle=0;overflow=hidden;html=1;whiteSpace=wrap;" vertex="1" parent="1cAIYkBVIxSNk02UuMZp-74">
          <mxGeometry x="90" width="90" height="30" as="geometry">
            <mxRectangle width="90" height="30" as="alternateBounds" />
          </mxGeometry>
        </mxCell>
        <mxCell id="1cAIYkBVIxSNk02UuMZp-77" value="" style="shape=tableRow;horizontal=0;startSize=0;swimlaneHead=0;swimlaneBody=0;fillColor=none;collapsible=0;dropTarget=0;points=[[0,0.5],[1,0.5]];portConstraint=eastwest;top=0;left=0;right=0;bottom=0;html=1;swimlaneLine=0;" vertex="1" parent="1cAIYkBVIxSNk02UuMZp-73">
          <mxGeometry y="65" width="180" height="35" as="geometry" />
        </mxCell>
        <mxCell id="1cAIYkBVIxSNk02UuMZp-78" value="capacidad" style="shape=partialRectangle;connectable=0;fillColor=none;top=0;left=0;bottom=0;right=0;editable=1;overflow=hidden;html=1;whiteSpace=wrap;" vertex="1" parent="1cAIYkBVIxSNk02UuMZp-77">
          <mxGeometry width="90" height="35" as="geometry">
            <mxRectangle width="90" height="35" as="alternateBounds" />
          </mxGeometry>
        </mxCell>
        <mxCell id="1cAIYkBVIxSNk02UuMZp-79" value="Integer" style="shape=partialRectangle;connectable=0;fillColor=none;top=0;left=0;bottom=0;right=0;align=center;spacingLeft=6;overflow=hidden;html=1;whiteSpace=wrap;" vertex="1" parent="1cAIYkBVIxSNk02UuMZp-77">
          <mxGeometry x="90" width="90" height="35" as="geometry">
            <mxRectangle width="90" height="35" as="alternateBounds" />
          </mxGeometry>
        </mxCell>
        <mxCell id="1cAIYkBVIxSNk02UuMZp-80" value="" style="shape=tableRow;horizontal=0;startSize=0;swimlaneHead=0;swimlaneBody=0;fillColor=none;collapsible=0;dropTarget=0;points=[[0,0.5],[1,0.5]];portConstraint=eastwest;top=0;left=0;right=0;bottom=0;html=1;" vertex="1" parent="1cAIYkBVIxSNk02UuMZp-73">
          <mxGeometry y="100" width="180" height="30" as="geometry" />
        </mxCell>
        <mxCell id="1cAIYkBVIxSNk02UuMZp-81" value="peso" style="shape=partialRectangle;connectable=0;fillColor=none;top=0;left=0;bottom=0;right=0;editable=1;overflow=hidden;html=1;whiteSpace=wrap;" vertex="1" parent="1cAIYkBVIxSNk02UuMZp-80">
          <mxGeometry width="90" height="30" as="geometry">
            <mxRectangle width="90" height="30" as="alternateBounds" />
          </mxGeometry>
        </mxCell>
        <mxCell id="1cAIYkBVIxSNk02UuMZp-82" value="Integer" style="shape=partialRectangle;connectable=0;fillColor=none;top=0;left=0;bottom=0;right=0;align=center;spacingLeft=6;overflow=hidden;html=1;whiteSpace=wrap;" vertex="1" parent="1cAIYkBVIxSNk02UuMZp-80">
          <mxGeometry x="90" width="90" height="30" as="geometry">
            <mxRectangle width="90" height="30" as="alternateBounds" />
          </mxGeometry>
        </mxCell>
        <mxCell id="1cAIYkBVIxSNk02UuMZp-83" value="" style="shape=tableRow;horizontal=0;startSize=0;swimlaneHead=0;swimlaneBody=0;fillColor=none;collapsible=0;dropTarget=0;points=[[0,0.5],[1,0.5]];portConstraint=eastwest;top=0;left=0;right=0;bottom=1;html=1;verticalAlign=bottom;" vertex="1" parent="1cAIYkBVIxSNk02UuMZp-73">
          <mxGeometry y="130" width="180" height="30" as="geometry" />
        </mxCell>
        <mxCell id="1cAIYkBVIxSNk02UuMZp-84" value="modelo" style="shape=partialRectangle;connectable=0;fillColor=none;top=0;left=0;bottom=0;right=0;fontStyle=0;overflow=hidden;html=1;whiteSpace=wrap;" vertex="1" parent="1cAIYkBVIxSNk02UuMZp-83">
          <mxGeometry width="90" height="30" as="geometry">
            <mxRectangle width="90" height="30" as="alternateBounds" />
          </mxGeometry>
        </mxCell>
        <mxCell id="1cAIYkBVIxSNk02UuMZp-85" value="Varchar" style="shape=partialRectangle;connectable=0;fillColor=none;top=0;left=0;bottom=0;right=0;align=center;spacingLeft=6;fontStyle=0;overflow=hidden;html=1;whiteSpace=wrap;" vertex="1" parent="1cAIYkBVIxSNk02UuMZp-83">
          <mxGeometry x="90" width="90" height="30" as="geometry">
            <mxRectangle width="90" height="30" as="alternateBounds" />
          </mxGeometry>
        </mxCell>
        <mxCell id="1cAIYkBVIxSNk02UuMZp-127" value="" style="fontSize=12;html=1;endArrow=ERoneToMany;rounded=0;entryX=0;entryY=0.5;entryDx=0;entryDy=0;elbow=vertical;" edge="1" parent="1">
          <mxGeometry width="100" height="100" relative="1" as="geometry">
            <mxPoint x="240" y="112" as="sourcePoint" />
            <mxPoint x="340" y="111.5" as="targetPoint" />
          </mxGeometry>
        </mxCell>
      </root>
    </mxGraphModel>
  </diagram>
</mxfile>
